<?xml version="1.0" standalone="no"?>
<!DOCTYPE svg PUBLIC "-//W3C//DTD SVG 20010904//EN"
 "http://www.w3.org/TR/2001/REC-SVG-20010904/DTD/svg10.dtd">
<svg version="1.0" xmlns="http://www.w3.org/2000/svg"
 width="1280.000000pt" height="999.000000pt" viewBox="0 0 1280.000000 999.000000"
 preserveAspectRatio="xMidYMid meet">
<g transform="translate(0.000000,999.000000) scale(0.100000,-0.100000)"
fill="#000000" stroke="none">
<path d="M6258 9961 c-88 -31 -140 -65 -201 -130 -79 -85 -130 -195 -141 -308
l-6 -58 15 55 c28 102 103 180 172 180 57 0 105 -28 179 -105 76 -80 109 -94
120 -51 7 30 -14 71 -58 112 -87 83 -202 103 -290 51 -54 -31 -68 -34 -68 -10
0 26 128 146 184 173 99 47 185 36 319 -42 86 -50 131 -59 147 -29 34 64 -25
124 -169 172 -74 24 -110 23 -203 -10z"/>
<path d="M6075 9460 c-67 -15 -104 -50 -111 -106 l-5 -39 16 35 c40 87 90 102
145 45 42 -44 70 -46 70 -7 0 48 -58 85 -115 72z"/>
<path d="M5912 9350 c0 -19 2 -27 5 -17 2 9 2 25 0 35 -3 9 -5 1 -5 -18z"/>
<path d="M5946 9302 c-4 -7 -12 -10 -17 -7 -25 16 3 -72 57 -179 46 -90 130
-218 183 -278 23 -25 41 -54 41 -63 0 -15 -8 -16 -72 -9 -84 10 -267 8 -321
-3 -26 -6 4 -8 95 -9 154 -2 252 -26 387 -93 132 -67 284 -203 365 -328 26
-41 66 -46 66 -9 0 31 -55 100 -206 257 -170 177 -272 350 -293 497 l-9 57 -1
-50 c-1 -57 15 -123 53 -218 14 -36 26 -73 26 -81 0 -35 -41 -13 -105 57 -123
132 -205 277 -228 403 -8 40 -16 63 -21 56z"/>
<path d="M6298 9234 c-16 -8 -28 -17 -28 -20 0 -2 12 2 28 9 15 8 34 17 42 20
13 5 13 5 0 6 -8 0 -27 -7 -42 -15z"/>
<path d="M6519 9188 c59 -64 53 -171 -12 -205 -28 -14 -32 -14 -43 2 -7 9 -10
23 -7 31 9 24 -6 62 -28 69 -29 10 -78 -14 -85 -40 -12 -47 50 -105 111 -105
132 1 172 196 55 268 -21 13 -19 9 9 -20z"/>
<path d="M6595 8729 c-20 -18 -34 -33 -32 -35 2 -2 26 6 54 18 79 33 118 7 42
-28 -47 -21 -89 -51 -89 -64 0 -13 79 -33 104 -26 11 3 59 30 105 60 93 60 93
60 -8 90 -87 26 -134 22 -176 -15z"/>
<path d="M6355 8476 c-22 -22 -63 -132 -52 -142 2 -2 40 12 85 32 56 25 82 42
86 58 14 53 5 57 -60 24 -55 -27 -69 -15 -26 23 28 25 30 29 12 29 -12 0 -32
-11 -45 -24z"/>
<path d="M5134 8410 c-260 -68 -467 -236 -579 -471 -98 -207 -87 -475 29 -714
65 -133 190 -295 227 -295 20 0 6 22 -57 90 -120 131 -196 274 -225 422 -10
55 -10 77 0 125 10 41 10 58 2 61 -34 11 6 211 68 337 157 317 578 523 851
417 119 -47 213 -150 246 -269 31 -114 -1 -180 -110 -233 -81 -38 -136 -97
-136 -144 0 -49 22 -66 82 -66 145 0 257 170 246 372 -3 70 -9 93 -38 146
-101 190 -363 286 -606 222z"/>
<path d="M2042 8265 c-16 -35 -15 -60 3 -95 25 -49 85 -36 85 18 0 19 -4 23
-17 17 -10 -4 -27 -8 -38 -9 -17 -1 -20 5 -19 47 0 26 0 47 -1 47 -1 0 -7 -11
-13 -25z"/>
<path d="M2220 8278 c0 -7 63 -95 78 -108 3 -3 -3 10 -14 28 -22 39 -63 90
-64 80z"/>
<path d="M8094 8271 c39 -8 74 -55 60 -79 -6 -9 -24 -19 -40 -22 -32 -6 -45
-39 -22 -57 29 -24 57 -24 79 -2 50 50 -7 171 -79 168 l-27 -1 29 -7z"/>
<path d="M7974 8205 c-9 -13 -14 -29 -12 -35 2 -6 11 5 19 24 19 42 16 46 -7
11z"/>
<path d="M10866 8035 c-71 -25 -126 -94 -126 -159 0 -73 102 -114 164 -65 50
39 28 79 -45 79 -59 0 -69 19 -35 70 67 101 203 90 283 -22 99 -138 107 -340
21 -547 -37 -89 -83 -158 -217 -330 -113 -144 -199 -228 -310 -302 -93 -63
-106 -55 -64 38 52 114 58 141 58 263 0 106 -2 119 -27 166 -29 55 -79 94
-119 93 l-24 0 24 -10 c86 -34 131 -112 131 -229 0 -182 -92 -341 -240 -415
-241 -121 -914 -255 -1220 -243 -76 3 -85 5 -85 22 0 14 26 34 89 70 227 132
312 250 340 475 19 146 43 206 111 270 134 127 347 160 450 70 79 -70 81 -226
4 -314 -85 -96 -229 -49 -229 75 0 41 4 52 26 69 33 26 45 26 75 2 21 -16 22
-22 11 -45 -13 -30 2 -36 18 -7 34 65 -39 106 -111 64 -60 -36 -73 -119 -28
-177 31 -39 71 -56 133 -56 51 0 60 4 98 38 58 52 81 110 81 202 0 115 -46
187 -142 219 -44 14 -168 14 -210 0 -69 -24 -51 22 48 121 90 92 160 131 235
133 28 0 62 -3 76 -7 20 -7 23 -6 13 5 -7 7 -40 15 -73 17 -103 8 -143 -19
-370 -247 -107 -108 -202 -207 -211 -221 l-16 -24 -17 29 c-16 27 -17 28 -11
5 14 -55 17 -232 5 -292 -30 -158 -148 -286 -359 -393 -97 -49 -149 -64 -246
-71 -282 -22 -718 127 -1275 438 -140 78 -293 159 -340 179 -46 20 -86 41 -87
46 -2 6 81 10 224 9 191 0 239 3 293 18 152 42 209 97 332 320 121 218 178
273 298 287 53 7 53 7 -13 4 -92 -3 -145 -37 -212 -132 -27 -40 -54 -71 -60
-69 -5 1 -13 50 -17 107 -11 155 -16 152 -11 -6 6 -159 -2 -189 -78 -310 -51
-82 -115 -138 -188 -166 -81 -31 -266 -36 -506 -14 -201 19 -344 16 -447 -9
-65 -16 -86 -5 -48 24 l23 17 -24 6 c-46 13 -69 7 -116 -29 -27 -20 -76 -51
-110 -67 -63 -31 -70 -40 -54 -66 7 -12 20 -10 72 11 89 36 222 52 381 46 197
-8 276 -42 406 -177 69 -72 117 -158 132 -239 12 -68 6 -81 -70 -132 -66 -45
-85 -70 -76 -105 7 -29 63 -49 106 -40 45 10 36 25 -14 25 -27 0 -48 6 -57 16
-21 25 13 75 74 110 40 23 53 36 55 57 5 38 20 34 69 -20 43 -48 43 -48 17 -8
-14 22 -56 94 -92 159 -37 65 -89 143 -116 173 -27 29 -46 57 -42 60 9 10 136
-54 288 -144 148 -87 327 -170 593 -276 414 -163 634 -217 887 -217 153 0 236
11 553 75 149 29 330 66 404 80 224 44 509 144 728 254 129 65 182 82 265 82
64 0 77 -3 171 -52 94 -49 107 -53 172 -54 51 0 78 5 98 18 36 24 76 86 84
130 5 32 1 41 -30 72 -35 35 -79 47 -92 25 -4 -6 5 -35 19 -66 14 -31 26 -69
26 -83 0 -34 -34 -66 -77 -76 -43 -9 -138 17 -202 54 -101 60 -164 70 -306 49
-36 -5 -20 25 87 168 238 316 293 433 292 629 -1 138 -21 221 -73 295 -67 96
-172 132 -275 95z"/>
<path d="M2366 7995 c38 -202 74 -324 130 -444 25 -52 43 -99 42 -103 -2 -5
-23 5 -48 23 -83 60 -145 82 -215 77 -34 -3 -71 -11 -81 -17 -16 -9 -14 -10
11 -4 56 15 139 8 185 -15 44 -21 150 -111 381 -321 201 -182 273 -230 629
-414 178 -91 353 -171 296 -134 -11 6 -48 31 -84 55 -39 25 -72 40 -82 37 -23
-7 -146 107 -195 180 -42 64 -75 153 -75 204 1 80 73 173 145 187 39 7 77 4
193 -17 79 -14 105 -8 110 28 4 29 -60 83 -101 85 -197 9 -307 -55 -346 -204
-9 -33 -20 -59 -26 -59 -26 0 -32 131 -11 232 36 170 134 252 337 282 100 15
163 38 173 63 8 21 -19 71 -46 85 -37 20 -155 6 -222 -26 -84 -40 -188 -141
-230 -225 -92 -184 -63 -428 73 -629 65 -95 54 -103 -61 -43 -157 81 -359 226
-495 355 -148 140 -233 280 -296 487 -61 199 -97 306 -91 275z"/>
<path d="M4978 8013 c7 -3 16 -2 19 1 4 3 -2 6 -13 5 -11 0 -14 -3 -6 -6z"/>
<path d="M5137 7959 c55 -58 66 -98 52 -188 -16 -107 -3 -135 41 -91 16 16 20
33 20 80 0 93 -47 183 -113 216 l-32 16 32 -33z"/>
<path d="M4046 7949 c-44 -11 -82 -21 -84 -23 -2 -3 10 -12 27 -21 17 -8 66
-44 109 -79 121 -98 155 -110 247 -85 l40 11 -35 30 c-19 16 -68 48 -107 70
-40 22 -73 44 -73 49 0 22 68 6 138 -32 l74 -41 -26 35 c-49 65 -131 108 -201
106 -16 0 -66 -9 -109 -20z"/>
<path d="M4729 7943 l-24 -26 33 23 c33 25 38 30 24 30 -5 0 -19 -12 -33 -27z"/>
<path d="M4875 7938 c15 -24 15 -29 0 -58 -18 -34 -15 -46 10 -37 22 9 19 70
-6 98 l-20 24 16 -27z"/>
<path d="M5046 7933 c5 -25 -1 -47 -25 -92 -37 -72 -38 -83 -8 -79 47 7 77
138 42 184 -14 18 -14 17 -9 -13z"/>
<path d="M7942 7830 c0 -19 2 -27 5 -17 2 9 2 25 0 35 -3 9 -5 1 -5 -18z"/>
<path d="M8373 7729 c70 -37 102 -122 70 -187 -25 -51 -48 -53 -70 -5 -23 48
-62 57 -99 22 -31 -29 -30 -50 2 -80 20 -19 37 -24 75 -24 41 0 53 5 80 31 39
40 48 97 25 159 -19 47 -76 105 -104 105 -10 -1 -1 -9 21 -21z"/>
<path d="M10064 7543 c-16 -17 -16 -18 7 -24 29 -7 44 4 36 25 -8 21 -21 20
-43 -1z"/>
<path d="M2119 7481 c-22 -21 -39 -45 -39 -52 0 -8 9 0 20 16 11 17 32 40 47
52 15 13 24 23 19 23 -4 0 -26 -17 -47 -39z"/>
<path d="M9050 7505 c-6 -8 -10 -22 -8 -32 3 -15 18 -19 90 -25 134 -10 205
-57 266 -173 12 -22 21 -36 22 -32 1 26 -63 122 -119 178 -53 53 -78 70 -121
83 -67 20 -114 20 -130 1z"/>
<path d="M7512 7495 c-23 -7 -72 -32 -108 -56 l-66 -42 54 -17 c29 -9 91 -36
136 -60 75 -38 89 -42 138 -38 53 5 106 31 106 53 1 16 -153 75 -194 75 -20 0
-40 5 -44 11 -18 30 70 38 150 14 27 -8 51 -13 53 -11 7 7 -94 64 -133 75 -46
13 -38 13 -92 -4z"/>
<path d="M2728 7450 c-36 -37 -31 -51 8 -21 24 19 74 29 74 15 0 -3 -21 -25
-47 -49 -27 -24 -46 -45 -43 -48 3 -2 22 -7 43 -11 36 -7 40 -5 108 60 49 48
66 70 57 76 -7 4 -48 8 -91 8 -74 0 -80 -2 -109 -30z"/>
<path d="M2071 7367 c-2 -94 51 -157 133 -157 30 0 45 7 72 34 19 19 34 43 34
53 0 23 -25 48 -57 57 -32 10 -76 -34 -68 -67 9 -36 -18 -54 -50 -33 -33 22
-48 51 -56 111 l-6 50 -2 -48z"/>
<path d="M4920 7343 c-79 -13 -116 -41 -135 -103 -7 -23 -5 -22 34 13 22 20
50 37 61 37 24 0 26 -13 3 -31 -21 -18 -73 -89 -73 -101 0 -9 71 -11 95 -2 13
5 104 124 139 182 5 9 -6 12 -46 11 -29 -1 -64 -4 -78 -6z"/>
<path d="M8065 7259 c49 -26 95 -68 95 -86 0 -18 -8 -16 -36 6 -26 20 -182 77
-190 69 -8 -9 19 -73 40 -96 29 -33 59 -46 146 -67 41 -10 92 -26 113 -37 l38
-19 -7 28 c-38 157 -80 206 -191 219 l-48 5 40 -22z"/>
<path d="M2550 7193 c-35 -13 -82 -71 -110 -139 -16 -40 -30 -77 -30 -82 0 -6
17 -2 38 8 20 10 57 23 81 30 61 16 89 37 112 81 39 77 19 85 -74 28 -27 -16
-53 -27 -58 -23 -16 10 10 43 56 70 25 14 45 28 45 30 0 6 -42 4 -60 -3z"/>
<path d="M9010 7092 c-52 -21 -104 -43 -114 -49 -18 -10 -17 -11 11 -17 29 -7
66 -29 183 -110 51 -35 59 -38 108 -33 55 6 123 34 124 52 0 14 -82 63 -144
85 -66 23 -77 50 -21 50 32 0 69 -13 172 -57 29 -13 -35 59 -78 88 -63 41
-119 39 -241 -9z"/>
<path d="M7664 7092 c-30 -24 -44 -55 -44 -97 0 -29 8 -45 34 -71 19 -19 42
-34 53 -34 12 1 7 5 -13 14 -42 18 -64 52 -64 97 0 40 29 85 64 99 13 5 15 9
6 9 -8 0 -25 -7 -36 -17z"/>
<path d="M7777 7094 c17 -9 38 -30 47 -47 10 -21 16 -26 16 -14 0 10 -13 32
-29 48 -16 16 -38 29 -48 29 -12 0 -7 -6 14 -16z"/>
<path d="M3535 7083 c-57 -14 -105 -81 -105 -145 0 -18 9 -51 20 -73 11 -22
17 -29 12 -15 -13 45 -7 99 15 127 19 26 26 28 86 28 74 0 95 12 78 43 -14 26
-68 44 -106 35z"/>
<path d="M3960 7033 c17 -28 40 -91 54 -150 31 -126 54 -172 103 -206 47 -32
145 -69 156 -58 8 8 -32 129 -65 196 -11 22 -32 52 -46 67 -28 30 -25 44 6 34
37 -12 95 -82 134 -161 l39 -80 -5 70 c-12 173 -62 225 -291 300 -58 19 -108
35 -110 35 -2 0 9 -21 25 -47z"/>
<path d="M7706 7014 c-4 -10 -1 -24 7 -31 19 -19 49 -5 45 21 -4 27 -43 34
-52 10z"/>
<path d="M2830 6942 c-49 -48 -58 -92 -37 -175 8 -34 21 -75 27 -92 l12 -30
15 30 c9 17 38 54 64 84 27 31 51 69 55 86 6 35 -12 115 -26 115 -12 0 -41
-39 -70 -94 -14 -25 -29 -45 -35 -43 -20 7 -15 44 15 100 16 31 27 57 24 57
-4 0 -23 -17 -44 -38z"/>
<path d="M7831 6968 c-1 -20 -56 -68 -79 -69 -10 0 -12 -3 -5 -5 31 -13 101
50 89 79 -2 7 -5 5 -5 -5z"/>
<path d="M346 6949 c-22 -17 -56 -67 -56 -82 0 -2 20 15 44 39 31 32 51 44 72
44 l29 -1 -33 -27 c-48 -40 -39 -92 16 -92 44 0 62 17 62 60 0 74 -74 106
-134 59z"/>
<path d="M954 6922 c8 -21 19 -71 25 -110 18 -115 31 -140 105 -193 47 -35 56
-36 56 -6 0 30 -37 143 -56 173 -22 33 -1 38 28 6 27 -29 52 -73 73 -131 l14
-36 0 50 c1 67 -26 122 -83 172 -39 34 -158 113 -171 113 -2 0 2 -17 9 -38z"/>
<path d="M4605 6877 c-19 -19 -35 -43 -35 -53 1 -13 5 -8 14 12 26 60 86 80
146 49 37 -19 50 -43 50 -92 -1 -110 -152 -141 -195 -40 -8 18 -14 24 -15 15
0 -29 49 -77 86 -84 107 -20 179 106 106 187 -21 24 -38 32 -75 36 -43 5 -49
3 -82 -30z"/>
<path d="M1655 6884 c-42 -22 -94 -73 -115 -115 -22 -41 -50 -146 -49 -180 0
-13 8 5 17 41 29 112 42 127 187 217 38 23 46 53 13 53 -13 0 -36 -7 -53 -16z"/>
<path d="M8447 6866 c-59 -16 -84 -38 -113 -101 -34 -71 -30 -85 10 -34 34 45
99 89 112 76 4 -4 -8 -24 -28 -45 -33 -34 -98 -138 -98 -157 0 -14 92 2 119
22 14 10 49 62 76 115 28 53 59 106 69 117 l19 21 -59 -1 c-32 0 -80 -6 -107
-13z"/>
<path d="M9538 6753 c6 -2 18 -2 25 0 6 3 1 5 -13 5 -14 0 -19 -2 -12 -5z"/>
<path d="M9469 6721 c-16 -16 -29 -38 -29 -48 1 -11 6 -6 15 14 7 17 26 38 42
47 15 8 22 15 15 16 -8 0 -27 -13 -43 -29z"/>
<path d="M9600 6733 c27 -18 42 -37 52 -68 5 -18 6 -18 7 3 1 25 -48 82 -70
82 -8 0 -2 -8 11 -17z"/>
<path d="M10914 6665 c-4 -9 -2 -21 4 -27 16 -16 47 -5 47 17 0 26 -42 34 -51
10z"/>
<path d="M305 6650 c16 -62 68 -148 116 -195 l53 -50 -47 55 c-26 30 -65 91
-88 135 -22 44 -38 69 -34 55z"/>
<path d="M9540 6640 c0 -5 5 -10 10 -10 6 0 10 5 10 10 0 6 -4 10 -10 10 -5 0
-10 -4 -10 -10z"/>
<path d="M3412 6610 c-82 -50 -80 -181 4 -236 34 -23 113 -23 148 -1 84 55 85
187 2 238 -41 25 -112 25 -154 -1z m122 -4 c67 -28 97 -111 62 -174 -44 -80
-170 -81 -211 -2 -35 67 -9 146 59 176 40 17 49 17 90 0z"/>
<path d="M3466 6504 c-8 -21 1 -34 24 -34 22 0 33 23 17 39 -16 16 -34 14 -41
-5z"/>
<path d="M9650 6614 c0 -8 -13 -29 -29 -45 -23 -22 -39 -29 -69 -29 -43 0 -87
27 -97 61 -4 11 -9 18 -11 16 -10 -10 19 -55 46 -70 47 -28 97 -22 136 17 29
29 45 66 29 66 -3 0 -5 -7 -5 -16z"/>
<path d="M1481 6530 c-3 -65 -10 -67 -98 -30 -61 26 -92 33 -143 33 -83 0
-112 -9 -290 -94 -118 -56 -160 -71 -225 -80 -94 -13 -107 -19 -39 -19 75 0
157 25 279 85 134 66 153 72 161 51 4 -11 -8 -32 -35 -61 -22 -24 -41 -53 -41
-62 0 -12 7 -7 20 15 42 69 162 118 264 110 82 -7 132 -43 240 -171 113 -135
260 -278 359 -348 146 -104 346 -181 507 -196 36 -3 76 -12 89 -20 46 -29 158
-13 316 46 164 62 261 115 481 262 167 111 288 179 319 179 13 0 -6 -26 -61
-82 -104 -108 -144 -162 -310 -414 -164 -251 -222 -330 -304 -418 -76 -81
-143 -131 -218 -163 -31 -13 -43 -21 -27 -18 48 10 131 51 176 87 56 45 168
183 358 441 88 119 198 263 244 320 101 122 237 254 271 263 34 8 60 2 64 -16
4 -21 -136 -258 -273 -465 -155 -233 -275 -383 -440 -554 -270 -278 -521 -456
-825 -584 -151 -63 -190 -72 -310 -71 -123 1 -205 20 -301 70 -83 44 -107 69
-130 136 -15 44 -18 48 -18 23 -1 -70 61 -150 149 -195 57 -29 155 -50 238
-50 71 0 89 -9 55 -29 -66 -38 182 27 340 90 289 114 550 291 803 543 224 224
374 419 638 827 87 134 172 261 189 282 20 27 59 53 126 86 244 123 486 165
734 127 85 -12 124 -6 73 13 -34 13 -166 38 -267 50 -119 14 -455 16 -452 3 1
-6 -17 -17 -40 -26 -203 -74 -254 -95 -337 -136 -52 -26 -187 -104 -300 -172
-420 -254 -690 -368 -946 -398 -134 -16 -202 4 -245 73 -28 45 -19 93 25 134
48 44 104 60 155 43 22 -7 47 -10 57 -6 16 6 16 8 1 23 -14 15 -25 15 -87 6
-86 -14 -138 -39 -167 -83 -30 -43 -29 -78 2 -124 14 -21 23 -41 20 -46 -7
-11 -120 27 -208 69 -95 46 -183 107 -207 146 -12 19 -27 32 -34 29 -14 -5
-125 101 -242 232 -108 121 -118 137 -125 209 -4 37 -7 47 -8 25z"/>
<path d="M4038 6553 c7 -3 16 -2 19 1 4 3 -2 6 -13 5 -11 0 -14 -3 -6 -6z"/>
<path d="M7832 6529 c-26 -10 -25 -27 1 -43 13 -9 20 -6 32 12 15 21 18 21 45
7 32 -16 45 -44 35 -75 -8 -26 -39 -42 -95 -51 -39 -7 -36 -7 22 -5 49 1 72 7
87 20 26 23 28 78 4 101 -30 30 -97 48 -131 34z"/>
<path d="M10155 6410 c68 -32 109 -70 103 -95 -3 -14 -8 -13 -35 8 -36 27
-198 85 -208 75 -12 -12 6 -68 32 -99 34 -40 67 -56 170 -80 49 -11 103 -29
122 -40 18 -11 35 -18 38 -15 2 2 -1 24 -7 47 -21 84 -53 149 -85 178 -33 28
-106 51 -163 51 -22 0 -16 -6 33 -30z"/>
<path d="M2770 6412 c0 -5 9 -17 20 -27 10 -9 33 -52 50 -94 56 -137 63 -150
86 -166 32 -21 144 -49 155 -38 10 10 -41 114 -82 165 -32 41 -36 58 -14 58
24 0 85 -61 117 -117 17 -30 33 -52 35 -49 7 7 -18 118 -33 149 -22 42 -81 74
-174 96 -121 28 -160 33 -160 23z"/>
<path d="M9789 6405 c-30 -16 -66 -93 -76 -160 l-6 -45 83 38 c85 38 113 65
124 115 8 34 -14 36 -63 6 -48 -29 -63 -10 -23 30 28 29 29 31 9 31 -12 -1
-34 -7 -48 -15z"/>
<path d="M1947 6376 c-21 -8 -48 -22 -59 -33 -47 -42 -70 -136 -48 -203 6 -19
8 -11 9 33 2 122 76 195 198 197 35 0 50 -7 89 -40 51 -45 67 -47 72 -8 2 21
-4 28 -34 43 -49 23 -177 30 -227 11z"/>
<path d="M8215 6375 c-54 -19 -98 -72 -124 -150 -30 -92 -29 -96 17 -74 25 12
79 22 165 29 164 13 205 29 237 95 13 26 19 50 14 55 -13 12 -201 -18 -257
-42 -54 -23 -69 -18 -41 13 26 29 68 49 144 70 l65 17 -90 1 c-53 0 -107 -6
-130 -14z"/>
<path d="M4856 6340 c-63 -40 -149 -122 -198 -188 -154 -208 -182 -453 -65
-580 42 -46 61 -45 21 1 -50 57 -64 102 -64 208 1 209 87 372 278 520 37 29
71 56 77 61 20 17 -3 7 -49 -22z"/>
<path d="M598 6353 c6 -2 18 -2 25 0 6 3 1 5 -13 5 -14 0 -19 -2 -12 -5z"/>
<path d="M1041 6306 c-1 -40 34 -110 70 -141 36 -29 98 -48 133 -39 32 8 75
50 82 81 8 30 -2 67 -22 88 -23 22 -29 11 -10 -17 24 -34 20 -74 -13 -110 -24
-27 -36 -33 -69 -32 -78 2 -144 66 -161 156 -7 35 -9 37 -10 14z"/>
<path d="M83 6168 c-28 -31 -35 -56 -23 -79 16 -29 30 -23 30 14 0 17 7 44 14
60 18 33 7 35 -21 5z"/>
<path d="M4009 6093 c5 -10 30 -39 55 -64 25 -26 46 -52 46 -57 0 -26 -23 -19
-74 23 -59 48 -72 41 -31 -16 42 -57 76 -69 190 -69 97 0 99 1 78 18 -12 9
-44 48 -70 87 -55 80 -78 95 -151 95 -47 0 -52 -2 -43 -17z"/>
<path d="M565 6001 c-16 -5 -61 -9 -100 -10 -58 -2 -66 -4 -47 -13 25 -12 28
-28 10 -47 -14 -15 -21 -17 90 25 34 13 67 24 72 24 24 0 6 -29 -38 -62 -26
-21 -63 -59 -82 -85 l-34 -48 61 56 c99 91 135 104 278 103 131 -1 145 -4 515
-113 172 -51 373 -101 404 -101 9 0 16 3 16 8 0 4 -37 15 -82 25 -104 23 -247
62 -503 139 -110 33 -238 68 -285 78 -100 22 -233 32 -275 21z"/>
<path d="M1085 5787 c-22 -12 -50 -38 -62 -56 -20 -30 -23 -46 -23 -133 l0
-99 43 35 c23 20 62 51 87 69 25 18 50 44 57 57 16 31 17 106 2 115 -5 4 -38
-21 -71 -54 -64 -64 -93 -69 -64 -13 9 17 20 33 25 37 10 6 55 65 49 65 -2 0
-21 -10 -43 -23z"/>
<path d="M155 5713 c-59 -61 -106 -143 -131 -233 -24 -83 -27 -107 -15 -114 7
-5 11 2 11 18 0 39 47 175 79 231 16 28 50 74 76 103 63 70 50 66 -20 -5z"/>
<path d="M10635 5708 c15 -99 49 -149 110 -164 l30 -7 -32 27 c-18 15 -33 34
-33 42 0 19 2 18 61 -12 28 -14 54 -23 57 -20 3 3 0 24 -7 45 -12 41 -45 72
-91 86 -14 4 -42 16 -63 27 l-39 19 7 -43z"/>
<path d="M10958 5716 c-48 -37 -58 -53 -58 -92 0 -30 17 -31 47 -2 28 26 41
17 25 -16 -14 -31 6 -27 26 4 16 26 28 140 15 140 -6 0 -30 -16 -55 -34z"/>
<path d="M3767 5716 c-48 -18 -62 -29 -81 -70 -20 -43 -20 -89 0 -132 18 -38
75 -78 101 -71 15 4 14 5 -3 6 -12 0 -33 10 -48 22 -103 81 -51 242 79 242
130 0 184 -166 78 -241 -16 -11 -37 -22 -48 -25 -18 -4 -18 -5 -1 -6 30 -2 83
37 100 73 56 119 -55 246 -177 202z"/>
<path d="M1740 5625 c0 -2 14 -26 30 -52 32 -50 40 -103 16 -103 -7 0 -19 13
-26 30 -17 42 -98 126 -109 114 -5 -5 -14 -33 -20 -63 -13 -62 -21 -48 94
-184 54 -64 82 -91 87 -82 16 27 38 143 38 199 0 57 -2 61 -45 103 -40 38 -65
53 -65 38z"/>
<path d="M3784 5596 c-11 -28 4 -48 33 -44 22 2 28 8 28 28 0 20 -6 26 -28 28
-18 2 -29 -2 -33 -12z"/>
<path d="M4730 5590 c0 -5 5 -10 11 -10 5 0 7 5 4 10 -3 6 -8 10 -11 10 -2 0
-4 -4 -4 -10z"/>
<path d="M2309 5514 c-21 -23 -24 -34 -24 -107 1 -69 5 -90 27 -133 26 -49 85
-111 128 -134 42 -22 31 -2 -13 23 -74 44 -124 141 -114 223 3 32 14 55 41 84
38 43 39 70 2 70 -13 0 -33 -12 -47 -26z"/>
<path d="M9912 5435 c4 -105 16 -130 78 -172 48 -33 59 -28 23 10 -40 42 -58
76 -45 89 6 6 16 3 28 -10 29 -31 96 -82 107 -82 13 0 0 109 -15 127 -6 8 -44
37 -85 65 -40 28 -73 54 -73 59 0 5 -5 9 -11 9 -8 0 -10 -29 -7 -95z"/>
<path d="M11113 5523 c9 -2 25 -2 35 0 9 3 1 5 -18 5 -19 0 -27 -2 -17 -5z"/>
<path d="M11233 5513 c9 -2 23 -2 30 0 6 3 -1 5 -18 5 -16 0 -22 -2 -12 -5z"/>
<path d="M10717 5464 c-155 -42 -239 -74 -392 -149 -459 -224 -814 -574 -1232
-1213 -285 -436 -252 -394 -353 -447 -112 -57 -200 -91 -309 -116 -163 -39
-275 -42 -496 -13 -46 6 -49 5 -35 -10 30 -31 290 -67 529 -73 146 -4 212 -3
208 4 -10 17 10 27 128 67 155 53 299 124 536 268 448 272 733 389 984 405 89
5 107 3 148 -15 111 -49 114 -168 5 -221 -47 -22 -68 -25 -135 -15 -34 5 -43
3 -43 -9 0 -8 7 -18 15 -21 20 -7 147 19 183 38 78 40 101 115 57 180 -14 21
-23 41 -20 44 10 10 119 -29 223 -80 75 -36 120 -66 160 -106 32 -31 63 -57
71 -58 28 -5 286 -278 344 -364 10 -14 18 -47 19 -80 1 -41 2 -46 5 -18 6 59
21 63 97 27 132 -62 207 -52 433 57 149 72 187 83 288 85 l70 2 -50 7 c-95 14
-186 -9 -331 -84 -102 -53 -154 -67 -154 -43 0 9 5 19 11 22 14 9 69 86 69 97
0 5 -14 -7 -31 -26 -66 -75 -181 -116 -272 -96 -74 16 -114 45 -213 162 -286
337 -511 487 -813 543 -46 8 -97 15 -113 15 -19 0 -28 4 -26 13 12 33 315 56
513 38 252 -23 449 -67 880 -196 361 -108 401 -113 648 -89 58 5 65 8 50 19
-17 13 -17 14 2 36 20 22 20 22 0 14 -96 -37 -165 -58 -171 -52 -5 4 22 36 58
70 37 34 75 76 85 92 14 24 8 20 -28 -17 -63 -62 -117 -95 -192 -115 -53 -14
-75 -14 -159 -4 -53 7 -152 28 -220 48 -68 19 -199 57 -293 84 -344 100 -563
134 -855 134 -292 -1 -436 -27 -688 -125 -142 -55 -235 -108 -459 -258 -153
-103 -288 -176 -305 -166 -5 3 36 52 91 109 81 84 132 153 267 357 92 139 193
287 224 328 90 119 204 226 285 267 73 37 53 39 -31 2 -75 -32 -199 -167 -384
-418 -233 -316 -318 -422 -429 -536 -121 -126 -188 -161 -207 -110 -12 30 267
477 436 700 333 440 709 746 1123 914 136 55 185 64 318 59 131 -6 230 -35
314 -93 55 -37 72 -59 92 -120 l13 -40 -5 45 c-7 61 -49 118 -115 158 -74 44
-137 61 -247 69 -51 3 -93 9 -93 13 0 4 10 12 23 18 40 19 -9 13 -106 -14z"/>
<path d="M2528 5393 c-48 -50 -64 -138 -33 -179 13 -18 14 -17 15 19 0 43 10
65 51 118 16 20 29 44 29 53 0 25 -34 19 -62 -11z"/>
<path d="M139 5384 c-11 -14 -9 -19 14 -36 22 -16 25 -23 16 -40 -6 -11 -25
-26 -42 -34 l-32 -15 30 6 c68 14 113 99 66 125 -27 14 -36 13 -52 -6z"/>
<path d="M11630 5374 c95 -77 144 -158 163 -267 9 -55 8 -71 -7 -110 -9 -25
-31 -60 -48 -76 -36 -35 -16 -45 20 -11 56 53 75 150 47 246 -29 101 -84 172
-180 229 -26 16 -26 14 5 -11z"/>
<path d="M10565 5267 c56 -50 38 -64 -38 -30 -31 14 -60 23 -63 20 -4 -3 4
-28 17 -54 17 -33 35 -53 59 -65 19 -9 59 -28 88 -42 60 -29 61 -27 38 62 -22
83 -54 120 -116 137 -21 5 -19 1 15 -28z"/>
<path d="M3430 5228 c53 -80 73 -155 45 -165 -6 -2 -20 16 -32 39 -22 45 -98
138 -113 138 -10 0 -25 -51 -35 -115 -7 -39 -4 -44 85 -155 51 -63 97 -123
102 -134 15 -27 23 -10 48 102 36 163 24 225 -58 288 -56 43 -70 43 -42 2z"/>
<path d="M9280 5088 c-12 -45 -24 -116 -27 -158 -5 -67 -3 -79 19 -110 24 -35
107 -104 115 -96 3 2 -9 24 -25 48 -34 50 -58 119 -48 143 8 23 20 13 54 -48
17 -28 48 -69 70 -91 l41 -39 9 39 c31 119 33 113 -65 237 -49 61 -97 122
-105 135 -15 22 -16 21 -38 -60z"/>
<path d="M2535 5132 c-8 -21 -3 -24 51 -20 l49 3 -47 16 c-41 14 -48 14 -53 1z"/>
<path d="M2658 5123 c6 -2 18 -2 25 0 6 3 1 5 -13 5 -14 0 -19 -2 -12 -5z"/>
<path d="M1035 5067 c-93 -93 -60 -298 67 -412 77 -69 99 -75 31 -8 -70 68
-107 136 -124 224 -15 86 -1 141 52 192 27 25 35 37 23 37 -9 0 -31 -15 -49
-33z"/>
<path d="M1110 5010 c0 -5 4 -10 9 -10 6 0 13 5 16 10 3 6 -1 10 -9 10 -9 0
-16 -4 -16 -10z"/>
<path d="M11677 4983 c-4 -3 -7 -11 -7 -17 0 -6 5 -5 12 2 6 6 9 14 7 17 -3 3
-9 2 -12 -2z"/>
<path d="M2124 4875 c11 -75 49 -151 85 -169 54 -29 68 -19 25 18 -43 37 -40
57 6 38 17 -7 43 -17 60 -24 42 -17 46 -5 18 49 -22 43 -31 51 -95 78 -39 16
-79 37 -88 45 -17 14 -18 12 -11 -35z"/>
<path d="M10165 4870 l-40 -7 43 -2 c24 0 53 -6 64 -12 13 -7 23 -7 27 -2 3 6
13 13 21 16 9 3 6 6 -10 6 -14 1 -34 3 -45 5 -11 2 -38 0 -60 -4z"/>
<path d="M10354 4837 c82 -51 125 -119 133 -207 5 -54 4 -58 -35 -103 -46 -53
-46 -77 -1 -77 42 0 69 48 69 120 0 71 -13 114 -49 172 -29 46 -102 109 -125
107 -6 0 -2 -6 8 -12z"/>
<path d="M10288 4742 c-4 -40 -14 -63 -42 -98 -39 -51 -45 -74 -20 -74 67 0
124 145 80 205 -12 16 -14 13 -18 -33z"/>
<path d="M2781 4717 c40 -33 64 -76 51 -89 -8 -8 -25 2 -63 36 -69 62 -84 61
-75 -4 10 -72 11 -75 81 -120 34 -22 71 -50 80 -60 32 -36 38 -24 33 74 -4
103 -17 134 -71 166 -45 28 -69 26 -36 -3z"/>
<path d="M12621 4694 c-48 -40 -39 -104 15 -104 34 0 40 31 10 53 -29 21 -25
41 13 62 18 10 21 14 9 15 -9 0 -30 -12 -47 -26z"/>
<path d="M10975 4658 c-24 -75 -31 -180 -15 -218 11 -26 85 -90 105 -90 3 0
-8 20 -25 45 -33 48 -49 108 -32 119 6 4 22 -13 36 -36 30 -51 91 -113 103
-105 5 4 15 31 22 62 11 49 11 57 -6 78 -34 43 -167 197 -169 197 -2 0 -11
-24 -19 -52z"/>
<path d="M12772 4564 c-19 -98 -56 -180 -123 -269 l-61 -80 56 58 c63 65 96
124 132 234 25 77 29 108 16 117 -4 2 -13 -25 -20 -60z"/>
<path d="M8909 4527 c-126 -84 -60 -279 90 -264 139 15 178 194 59 267 -45 27
-106 26 -149 -3z m146 -7 c120 -74 57 -261 -84 -247 -61 7 -111 57 -118 118
-11 110 109 187 202 129z"/>
<path d="M8960 4426 c-27 -33 18 -72 48 -42 13 13 14 20 6 34 -15 23 -38 26
-54 8z"/>
<path d="M1518 4473 c6 -2 18 -2 25 0 6 3 1 5 -13 5 -14 0 -19 -2 -12 -5z"/>
<path d="M11780 4471 c0 -5 -34 -32 -76 -61 -52 -36 -81 -63 -90 -86 -17 -40
-18 -100 -3 -110 6 -3 39 21 74 56 34 34 65 57 69 52 10 -17 -13 -65 -52 -104
-41 -43 -38 -46 17 -18 64 32 81 71 81 184 0 57 -4 96 -10 96 -5 0 -10 -4 -10
-9z"/>
<path d="M1628 4463 c23 -2 61 -2 85 0 23 2 4 4 -43 4 -47 0 -66 -2 -42 -4z"/>
<path d="M8193 4408 c52 -70 60 -105 54 -232 -9 -209 -85 -342 -284 -499 -68
-53 -82 -71 -30 -38 212 134 357 382 345 591 -5 87 -28 137 -83 190 l-38 35
36 -47z"/>
<path d="M2063 4419 c27 -20 37 -49 17 -49 -6 0 -28 9 -50 20 -22 11 -44 20
-51 20 -16 0 -3 -59 19 -83 14 -16 152 -87 169 -87 7 0 -7 73 -23 117 -17 47
-55 83 -88 83 -19 -1 -19 -2 7 -21z"/>
<path d="M1816 4391 c-29 -32 -52 -161 -28 -161 4 0 31 22 60 48 42 39 52 54
52 80 0 18 -3 32 -6 32 -3 0 -21 -12 -40 -26 -30 -23 -34 -24 -34 -8 0 9 7 26
17 36 9 10 12 18 6 18 -5 0 -17 -8 -27 -19z"/>
<path d="M8050 4400 c0 -5 5 -10 11 -10 5 0 7 5 4 10 -3 6 -8 10 -11 10 -2 0
-4 -4 -4 -10z"/>
<path d="M8520 4072 c0 -5 10 -17 21 -28 12 -10 39 -47 61 -82 22 -34 48 -67
58 -72 27 -15 126 -24 133 -13 4 6 -18 37 -48 71 -30 33 -55 65 -55 71 0 23
32 10 75 -30 50 -46 65 -47 42 -2 -23 43 -61 74 -104 84 -49 11 -183 12 -183
1z"/>
<path d="M12708 3878 c-3 -24 -8 -51 -13 -62 -14 -32 18 -13 39 23 15 26 16
37 8 57 -17 36 -29 29 -34 -18z"/>
<path d="M9710 3895 c0 -15 62 -125 89 -159 36 -45 38 -56 13 -56 -26 0 -83
58 -121 122 l-32 53 6 -50 c19 -141 69 -184 259 -220 111 -21 110 -22 76 32
-17 26 -44 84 -61 129 -35 93 -55 117 -118 139 -42 14 -111 21 -111 10z"/>
<path d="M10951 3812 c-1 -63 -19 -108 -57 -144 -38 -35 -74 -48 -138 -48 -47
0 -57 4 -89 35 -50 48 -102 44 -76 -6 21 -42 192 -66 266 -38 85 32 138 152
103 234 -6 15 -9 6 -9 -33z"/>
<path d="M11511 3834 c-52 -43 -52 -127 -1 -154 l20 -11 -20 33 c-28 47 -26
84 9 119 61 61 161 25 214 -76 9 -17 16 -23 17 -14 0 21 -65 96 -101 114 -45
24 -103 19 -138 -11z"/>
<path d="M4839 3828 c-22 -11 -80 -22 -155 -28 -145 -12 -183 -22 -216 -57
-25 -27 -48 -72 -48 -95 0 -19 211 17 275 48 48 22 56 10 18 -28 -21 -21 -55
-38 -109 -54 l-79 -23 85 0 c112 -1 150 11 194 59 32 36 84 165 74 187 -1 5
-19 0 -39 -9z"/>
<path d="M2570 3803 c0 -17 28 -109 44 -148 9 -22 29 -52 44 -68 29 -30 105
-57 161 -57 l36 0 -50 24 c-59 27 -115 72 -115 92 0 19 5 18 53 -10 49 -28
184 -73 193 -64 12 13 -9 70 -37 103 -31 35 -74 53 -194 81 -38 8 -85 25 -102
36 -18 11 -33 16 -33 11z"/>
<path d="M3155 3731 c-90 -42 -99 -51 -113 -103 -12 -45 -2 -49 58 -18 52 26
65 7 21 -32 l-31 -28 28 0 c40 0 66 23 91 79 19 45 40 142 30 140 -2 0 -40
-17 -84 -38z"/>
<path d="M11606 3703 c-6 -14 -5 -15 5 -6 7 7 10 15 7 18 -3 3 -9 -2 -12 -12z"/>
<path d="M11752 3680 c0 -19 2 -27 5 -17 2 9 2 25 0 35 -3 9 -5 1 -5 -18z"/>
<path d="M3775 3628 c-90 -9 -150 -20 -650 -122 -375 -77 -572 -141 -864 -285
-230 -112 -296 -117 -461 -33 -86 44 -111 52 -157 52 -73 0 -119 -23 -154 -79
-46 -71 -37 -136 21 -166 69 -35 88 -9 49 67 -29 56 -29 103 -1 131 19 18 33
22 87 21 57 -1 78 -7 158 -47 119 -60 185 -74 268 -58 35 7 65 9 70 4 5 -5
-34 -66 -92 -144 -273 -360 -334 -513 -300 -750 29 -202 146 -323 291 -303 99
14 180 90 180 170 0 53 -24 75 -90 82 -43 4 -55 1 -75 -18 -46 -43 -20 -86 44
-74 33 7 61 -8 61 -32 0 -24 -70 -92 -106 -104 -140 -47 -284 136 -284 360 0
129 53 292 137 416 40 60 113 158 225 299 38 48 136 134 221 193 95 66 106 57
58 -49 -40 -89 -55 -161 -55 -254 1 -133 46 -224 127 -254 54 -21 60 -11 9 15
-64 32 -88 64 -109 150 -45 184 65 410 241 493 207 98 653 201 1025 236 230
22 271 20 271 -15 0 -12 -30 -35 -87 -68 -120 -69 -199 -135 -249 -209 -57
-83 -81 -151 -93 -269 -19 -169 -64 -255 -171 -324 -129 -83 -293 -93 -387
-24 -66 49 -82 194 -32 284 25 44 90 90 128 90 66 0 131 -69 131 -139 0 -35
-37 -81 -65 -81 -46 0 -73 48 -43 78 7 7 8 12 2 12 -31 0 -46 -64 -22 -88 7
-7 30 -12 51 -12 31 0 46 7 73 34 28 28 34 42 34 76 0 84 -62 140 -155 140
-82 0 -142 -51 -171 -146 -40 -133 6 -258 111 -305 46 -21 167 -25 228 -8 22
6 41 8 45 5 11 -11 -24 -60 -93 -132 -104 -106 -203 -149 -291 -125 -35 9 -37
9 -20 -4 33 -25 124 -19 187 12 64 32 395 351 436 421 14 23 29 42 34 42 5 0
15 -15 23 -32 l15 -33 -7 35 c-4 19 -7 103 -7 185 0 149 0 151 32 216 54 109
173 214 340 298 93 46 163 62 289 62 306 1 709 -145 1281 -464 92 -52 212
-114 266 -137 54 -24 96 -48 94 -53 -2 -7 -73 -9 -193 -8 -281 3 -389 -20
-484 -106 -64 -57 -91 -98 -186 -270 -41 -76 -92 -155 -111 -175 -48 -50 -111
-78 -172 -78 -61 0 -97 13 -135 48 l-29 27 17 -27 c22 -34 83 -58 151 -58 97
0 162 39 232 141 25 38 50 69 54 69 12 0 19 -30 20 -88 0 -31 4 -79 8 -107 4
-28 6 16 3 100 l-5 150 45 87 c80 153 143 211 268 244 75 20 299 22 460 5 143
-16 323 -13 418 5 45 9 85 14 89 10 3 -3 -1 -14 -10 -24 -25 -28 -21 -32 27
-32 34 0 52 7 77 27 18 15 67 45 109 68 71 36 77 42 69 63 -10 27 -7 27 -77
-2 -79 -33 -194 -50 -342 -50 -209 1 -303 37 -432 167 -98 98 -141 180 -142
269 l-1 62 45 32 c75 54 100 81 100 108 0 36 -38 58 -92 54 -51 -4 -49 -23 3
-24 44 -1 59 -10 59 -33 0 -27 -34 -66 -85 -95 -42 -25 -49 -35 -46 -63 1 -6
-4 -15 -11 -19 -7 -5 -30 12 -61 47 l-49 54 29 -45 c17 -25 61 -99 99 -165 37
-66 90 -143 117 -172 26 -28 44 -54 39 -57 -13 -8 -129 50 -284 140 -280 164
-833 383 -1128 448 -196 43 -336 52 -515 34z"/>
<path d="M9233 3609 c-42 -27 -67 -81 -60 -131 18 -134 179 -171 254 -59 41
61 21 154 -41 192 -41 25 -112 25 -153 -2z m121 -3 c123 -51 89 -236 -44 -236
-70 0 -120 53 -120 128 0 46 29 88 74 108 40 17 49 17 90 0z"/>
<path d="M9293 3509 c-16 -16 -5 -39 17 -39 25 0 35 18 20 35 -15 18 -22 19
-37 4z"/>
<path d="M5013 3600 c-28 -11 -45 -44 -41 -78 4 -37 59 -72 114 -72 46 0 58 9
48 34 -9 22 -33 20 -53 -5 l-17 -22 -34 30 c-27 24 -32 34 -26 56 8 33 37 49
101 58 l50 6 -60 1 c-33 0 -70 -3 -82 -8z"/>
<path d="M12381 3521 c18 -24 50 -76 71 -115 42 -80 52 -73 12 9 -14 30 -46
76 -71 102 l-45 48 33 -44z"/>
<path d="M3324 3406 c-47 -47 -48 -100 -3 -151 17 -19 38 -35 48 -35 10 0 4 8
-16 20 -39 23 -53 48 -53 93 0 43 31 84 73 96 27 8 28 9 9 10 -15 1 -37 -12
-58 -33z"/>
<path d="M3420 3433 c38 -12 63 -29 75 -53 8 -14 14 -19 15 -12 0 22 -57 72
-82 71 -14 0 -17 -3 -8 -6z"/>
<path d="M8798 3423 c7 -3 16 -2 19 1 4 3 -2 6 -13 5 -11 0 -14 -3 -6 -6z"/>
<path d="M11301 3404 c0 -12 -10 -51 -21 -86 -23 -74 -51 -105 -143 -158 -70
-41 -86 -70 -39 -70 41 0 122 57 149 105 32 56 65 168 60 202 -3 20 -4 22 -6
7z"/>
<path d="M11660 3377 c0 -32 28 -123 51 -169 19 -36 16 -46 -7 -30 -24 17 -66
83 -83 133 l-20 54 0 -45 c-2 -105 44 -171 175 -249 80 -47 89 -49 73 -20 -6
12 -17 62 -25 112 -19 112 -41 158 -102 202 -56 41 -62 42 -62 12z"/>
<path d="M4526 3365 c-38 -20 -48 -34 -102 -140 -26 -49 -54 -99 -63 -109 -16
-18 -14 -19 65 -13 128 8 170 38 209 146 l14 42 -57 -61 c-32 -33 -65 -60 -75
-60 -24 0 -22 6 16 50 17 21 47 66 65 99 l33 61 -38 0 c-21 0 -51 -7 -67 -15z"/>
<path d="M8526 3343 c17 -67 75 -196 104 -233 18 -23 30 -44 26 -47 -3 -3 -24
6 -45 20 -48 32 -105 112 -127 179 -8 27 -18 48 -21 48 -3 0 -3 -33 0 -74 12
-165 76 -227 305 -300 98 -31 110 -32 90 -8 -28 31 -46 77 -73 182 -14 57 -32
115 -40 130 -22 42 -78 86 -140 109 -76 29 -87 28 -79 -6z"/>
<path d="M3511 3332 c-2 -39 -31 -83 -64 -97 -18 -8 -25 -14 -16 -15 40 -1 97
76 86 117 -4 14 -5 13 -6 -5z"/>
<path d="M9114 3338 c119 -79 148 -96 164 -91 14 3 42 -18 99 -75 104 -103
158 -203 158 -296 0 -73 -23 -126 -71 -163 -55 -41 -99 -46 -221 -22 -115 22
-153 17 -153 -19 0 -60 82 -98 188 -88 146 13 246 99 267 229 7 45 30 49 39 6
26 -131 -28 -328 -109 -396 -50 -43 -132 -75 -232 -90 -144 -21 -192 -48 -173
-98 17 -45 48 -60 121 -59 58 0 80 6 146 39 93 46 184 133 226 216 96 191 60
456 -90 661 -22 31 -30 49 -22 53 17 11 162 -65 292 -152 261 -175 435 -350
521 -520 38 -76 60 -139 116 -328 27 -93 53 -171 56 -174 4 -3 4 5 0 19 -3 14
-16 68 -27 120 -32 143 -56 215 -106 322 -26 54 -43 101 -40 105 4 3 27 -8 52
-26 110 -79 207 -94 308 -48 51 23 97 70 97 99 0 7 -8 0 -19 -17 -39 -63 -100
-95 -183 -95 -100 0 -143 30 -474 330 -163 148 -218 192 -339 265 -155 93
-691 360 -591 293z"/>
<path d="M1990 3326 c-18 -22 -5 -48 22 -44 17 2 23 10 23 28 0 29 -26 38 -45
16z"/>
<path d="M3395 3330 c-3 -5 -1 -10 4 -10 6 0 11 5 11 10 0 6 -2 10 -4 10 -3 0
-8 -4 -11 -10z"/>
<path d="M9960 3320 c0 -5 -27 -41 -60 -80 -68 -82 -74 -97 -66 -153 11 -68
21 -77 50 -42 14 17 35 51 47 78 12 26 27 46 33 44 21 -7 16 -44 -13 -100 -34
-65 -29 -72 16 -24 34 34 53 74 53 109 0 34 -41 178 -51 178 -5 0 -9 -4 -9
-10z"/>
<path d="M8054 3282 c-45 -36 -57 -98 -29 -151 14 -28 70 -60 82 -47 3 3 -2 6
-11 6 -10 0 -31 13 -47 29 -50 51 -31 144 35 171 13 5 15 9 6 9 -8 0 -25 -7
-36 -17z"/>
<path d="M8155 3290 c23 -9 60 -47 68 -70 4 -11 6 -11 6 3 1 24 -52 77 -76 76
-16 0 -16 -1 2 -9z"/>
<path d="M8110 3190 c0 -5 5 -10 10 -10 6 0 10 5 10 10 0 6 -4 10 -10 10 -5 0
-10 -4 -10 -10z"/>
<path d="M8220 3157 c0 -18 -50 -64 -75 -70 -19 -4 -19 -5 1 -6 26 -1 84 50
84 73 0 9 -2 16 -5 16 -3 0 -5 -6 -5 -13z"/>
<path d="M9335 3145 c2 -11 7 -32 10 -47 9 -36 -12 -95 -38 -109 -11 -7 -49
-11 -84 -10 -72 2 -91 -15 -56 -51 30 -29 91 -34 131 -9 69 44 90 127 52 206
-11 22 -18 31 -15 20z"/>
<path d="M12343 3145 c-56 -39 -7 -144 60 -131 36 7 107 75 107 102 0 11 -8 5
-22 -16 -26 -38 -94 -78 -109 -63 -6 6 2 17 21 31 44 33 39 74 -10 87 -16 3
-34 0 -47 -10z"/>
<path d="M3740 3090 c-56 -11 -112 -39 -108 -52 6 -18 105 -74 156 -89 48 -13
61 -27 41 -40 -21 -14 -87 -1 -157 31 -52 24 -61 26 -52 11 15 -28 80 -82 119
-98 20 -9 52 -13 76 -11 44 5 255 86 255 98 0 4 -13 10 -29 13 -16 3 -66 32
-112 63 -72 49 -141 87 -151 83 -2 -1 -19 -5 -38 -9z"/>
<path d="M5160 3077 c-31 -24 -50 -62 -50 -100 0 -31 7 -46 34 -73 29 -29 41
-34 81 -34 38 0 52 5 76 29 16 16 29 35 29 43 0 7 -6 4 -12 -7 -20 -37 -52
-55 -96 -55 -58 0 -102 41 -102 95 0 47 14 71 53 95 18 11 25 20 17 20 -8 -1
-22 -6 -30 -13z"/>
<path d="M5267 3075 c33 -14 52 -40 64 -90 6 -25 7 -26 8 -7 2 47 -50 113 -89
112 -8 -1 -1 -7 17 -15z"/>
<path d="M7980 3050 c0 -5 30 -42 66 -82 118 -131 179 -242 216 -392 20 -79
20 -94 9 -149 -9 -43 -10 -62 -2 -65 30 -10 -1 -186 -54 -313 -100 -239 -384
-444 -657 -474 -218 -24 -436 136 -463 340 -13 92 21 141 143 205 74 39 112
84 112 135 0 50 -28 68 -95 63 -60 -5 -103 -32 -157 -99 -73 -90 -100 -270
-57 -384 24 -65 109 -163 175 -201 250 -146 602 -77 852 168 167 163 242 336
242 555 0 215 -69 405 -216 600 -61 79 -114 123 -114 93z"/>
<path d="M10360 3010 c-8 -6 -45 -19 -82 -30 -49 -15 -74 -29 -97 -55 -31 -36
-49 -80 -37 -92 3 -4 38 8 76 27 38 19 73 31 77 27 10 -11 -37 -56 -82 -80
-51 -26 -28 -35 31 -12 54 20 85 60 119 148 14 37 25 70 25 72 0 8 -14 5 -30
-5z"/>
<path d="M5202 2997 c-9 -10 -8 -18 2 -32 18 -25 48 -13 44 17 -4 27 -30 35
-46 15z"/>
<path d="M4690 2932 c1 -41 51 -158 79 -184 32 -29 87 -48 136 -48 28 0 26 3
-24 28 -52 26 -101 75 -88 88 3 3 22 -3 41 -15 37 -23 177 -74 184 -67 9 10
-11 69 -34 96 -25 29 -72 48 -174 70 -30 7 -70 21 -87 31 -31 17 -33 17 -33 1z"/>
<path d="M7912 2831 c-26 -5 -43 -22 -96 -96 l-63 -90 49 -3 c81 -5 153 15
183 49 14 17 25 34 25 39 0 5 3 17 7 27 4 10 -13 0 -40 -24 -41 -38 -77 -55
-77 -37 0 3 15 24 34 47 32 40 56 79 56 91 0 7 -32 6 -78 -3z"/>
<path d="M10552 2763 c-30 -15 -62 -57 -62 -83 0 -5 9 -19 20 -30 43 -43 118
-7 105 50 -7 33 6 45 39 36 32 -8 57 -50 66 -110 l8 -51 1 44 c1 61 -31 125
-73 145 -42 20 -62 20 -104 -1z"/>
<path d="M5254 2697 c-47 -18 -78 -42 -71 -54 10 -16 172 -73 207 -73 39 0 47
-17 15 -32 -24 -11 -68 -6 -165 17 -25 6 -25 6 -5 -10 36 -31 119 -65 158 -65
48 0 90 18 169 72 62 42 62 43 33 46 -16 2 -77 25 -135 52 -118 55 -161 65
-206 47z"/>
<path d="M3574 2653 c28 -57 122 -149 177 -172 53 -23 144 -30 161 -13 5 5 8
18 6 28 -3 16 -19 21 -98 30 -124 14 -170 39 -238 129 l-23 30 15 -32z"/>
<path d="M9924 2586 c-38 -35 -66 -67 -62 -72 4 -4 46 -8 92 -8 88 -1 112 9
138 59 11 19 10 19 -13 2 -41 -29 -71 -39 -83 -27 -8 8 -6 14 8 22 38 21 79
65 72 76 -4 7 -24 12 -45 12 -34 0 -48 -8 -107 -64z"/>
<path d="M4553 2514 c-17 -9 -39 -31 -47 -49 -18 -37 -21 -102 -6 -125 7 -11
8 -6 4 17 -8 40 12 100 38 114 23 13 29 8 44 -34 10 -28 15 -32 49 -32 29 0
42 6 57 26 25 34 12 64 -37 85 -43 18 -62 17 -102 -2z"/>
<path d="M2852 2439 c4 -29 21 -34 42 -13 20 19 20 19 -17 28 -25 6 -28 4 -25
-15z"/>
<path d="M7566 2298 c-42 -59 -5 -202 68 -266 49 -43 66 -41 22 3 -46 46 -60
98 -46 172 16 87 14 113 -9 113 -11 0 -27 -10 -35 -22z"/>
<path d="M8472 2250 c-60 -14 -58 -25 15 -73 37 -25 85 -53 106 -63 20 -10 36
-23 34 -28 -7 -20 -71 -6 -134 30 -35 19 -63 31 -63 26 0 -16 89 -93 125 -108
47 -19 116 -17 203 5 41 11 76 22 79 24 2 3 -11 13 -30 22 -19 9 -63 40 -98
68 -123 101 -161 117 -237 97z"/>
<path d="M7760 2205 c-30 -31 -40 -129 -17 -159 13 -18 14 -17 10 11 -3 20 5
50 26 91 17 34 31 66 31 72 0 18 -26 11 -50 -15z"/>
<path d="M5012 2150 c0 -19 2 -27 5 -17 2 9 2 25 0 35 -3 9 -5 1 -5 -18z"/>
<path d="M7912 2138 c-18 -18 -15 -73 5 -89 15 -13 15 -12 4 9 -10 19 -10 28
4 49 18 27 8 52 -13 31z"/>
<path d="M8067 2051 c-35 -23 -43 -31 -29 -31 6 0 24 11 39 25 33 28 29 31
-10 6z"/>
<path d="M4779 1853 c-25 -66 27 -155 89 -152 27 2 27 2 2 6 -32 6 -50 21 -61
51 -11 28 5 54 30 50 25 -4 41 11 41 37 0 25 -17 35 -61 35 -23 0 -32 -6 -40
-27z"/>
<path d="M4989 1805 c-9 -25 -13 -42 -8 -40 9 6 33 75 27 80 -2 2 -11 -16 -19
-40z"/>
<path d="M10686 1834 c-18 -18 -21 -54 -5 -54 6 0 19 4 29 10 26 14 43 -11 38
-55 -3 -24 -1 -32 7 -24 18 18 12 95 -9 118 -23 25 -39 27 -60 5z"/>
<path d="M10526 1772 c10 -18 30 -43 43 -55 18 -16 16 -10 -9 23 -46 61 -56
71 -34 32z"/>
<path d="M6235 1670 c-9 -29 52 -108 190 -245 163 -163 271 -335 308 -490 11
-45 15 -52 16 -30 1 42 -24 136 -60 224 -32 77 -29 99 9 86 31 -9 161 -164
217 -256 61 -100 84 -168 85 -242 0 -67 -18 -118 -51 -141 -36 -24 -62 -20
-99 19 -43 44 -70 46 -70 6 0 -60 78 -89 155 -57 40 17 61 46 74 104 11 52 19
61 32 42 8 -11 9 -4 4 25 -15 91 -151 330 -255 448 -33 37 -40 50 -31 61 9 10
21 12 49 5 46 -11 273 -11 327 0 31 7 12 9 -80 10 -151 1 -258 26 -380 86
-145 71 -295 205 -380 338 -20 32 -51 35 -60 7z"/>
<path d="M6572 1624 c-68 -31 -92 -56 -92 -95 0 -15 33 -10 68 11 56 35 73 18
26 -25 -20 -18 -23 -25 -11 -25 38 0 97 94 97 155 0 20 -3 19 -88 -21z"/>
<path d="M6198 1342 c-48 -31 -88 -60 -88 -64 0 -8 111 -45 160 -53 41 -7 95
18 118 52 l14 23 -46 -21 c-47 -20 -92 -23 -89 -4 0 6 25 22 54 37 29 15 59
34 67 42 12 12 12 16 -6 25 -11 6 -37 13 -58 15 -35 5 -49 -1 -126 -52z"/>
<path d="M6435 1019 c-67 -59 -69 -153 -4 -214 l31 -30 -26 39 c-36 54 -42 97
-20 143 20 39 57 65 80 56 9 -3 14 -21 14 -47 0 -23 5 -47 12 -54 19 -19 57
-14 83 12 21 22 23 28 14 55 -13 38 -65 71 -112 71 -26 0 -46 -9 -72 -31z"/>
<path d="M6640 754 c-24 -9 -29 -13 -14 -13 11 -1 29 6 40 14 22 17 20 17 -26
-1z"/>
<path d="M7052 630 c0 -19 2 -27 5 -17 2 9 2 25 0 35 -3 9 -5 1 -5 -18z"/>
<path d="M7047 492 c-17 -97 -84 -185 -151 -197 -66 -13 -114 11 -197 96 -76
78 -113 97 -125 64 -10 -26 5 -64 43 -106 83 -92 218 -121 302 -66 46 30 71
34 71 12 0 -24 -130 -148 -181 -173 -101 -49 -188 -38 -321 39 -108 63 -153
62 -151 -6 2 -58 47 -94 172 -136 73 -24 101 -23 190 6 182 60 307 202 347
394 8 41 13 84 12 95 -2 12 -7 3 -11 -22z"/>
</g>
</svg>
